<svg xmlns="http://www.w3.org/2000/svg" viewbox="0 0 1920 1920" width="1920" height="1920"><defs></defs><g transform="matrix(1,0,0,1,0,0)">
<rect fill="#ffffff" x="0" y="0" width="1920" height="1920"/>
<g>
	<g>
		<path d="M-0.500000,-0.500000C-0.500000,-0.500000 0.500000,-0.500000 0.500000,-0.500000 C0.500000,-0.500000 0.500000,0.500000 0.500000,0.500000 C0.500000,0.500000 -0.500000,0.500000 -0.500000,0.500000 C-0.500000,0.500000 -0.500000,-0.500000 -0.500000,-0.500000 Z" transform="matrix(1920,0,0,1920,960,960)" fill="#000000"/>
		<path d="M960.000000,483.221477C1026.375309,483.131016 1107.233231,531.347324 1108.866125,615.471565 C1112.815223,818.923172 1111.491518,1044.427658 1108.866125,1302.154716 C1107.957437,1391.357901 1029.066155,1446.386568 960.000000,1446.273402 C891.976282,1446.161943 813.846697,1392.016955 813.846697,1303.850230 C813.846697,1090.215472 813.846697,824.026618 813.846697,613.776051 C813.846697,530.695867 894.675840,483.310504 960.000000,483.221477 Z" transform="" fill="none" stroke="#97fed6" stroke-width="40"/>
		<path d="M881.667255,751.462028C881.667255,751.462028 881.667255,1000.341776 881.667255,1125.821265 C881.667255,1163.122572 927.859972,1190.354785 962.251266,1190.250795 C994.588493,1190.153015 1037.682294,1164.459711 1037.654539,1129.212292 C1037.555731,1003.732843 1037.654539,751.462028 1037.654539,751.462028 " transform="" fill="none" stroke="#97fed6" stroke-width="40" stroke-linecap="round" stroke-linejoin="round"/>
	</g>
</g></g></svg>